<?xml version="1.0" encoding="UTF-8"?><svg width="14mm" height="14mm" version="1.1" viewBox="0 0 14 14" xmlns="http://www.w3.org/2000/svg"><g transform="translate(-1 -1)" fill="none" stroke="#49d095" stroke-linecap="round" stroke-linejoin="round" stroke-width="1.7"><path d="m2 14h5v-5l-1-1v-3l1-1v-2h-4v2l1 1v2l-2 2z"/><path d="m14 14h-5v-5l1-1v-3l-1-1v-2h4v2l-1 1v2l2 2z"/><path d="m7 4h2"/><path d="m7 10h2"/></g><g transform="translate(-1 -1)" fill="none" stroke="#000" stroke-linecap="round" stroke-linejoin="round" stroke-width=".75"><path d="m2 14h5v-5l-1-1v-3l1-1v-2h-4v2l1 1v2l-2 2z"/><path d="m14 14h-5v-5l1-1v-3l-1-1v-2h4v2l-1 1v2l2 2z"/><path d="m7 4h2"/><path d="m7 10h2"/></g></svg>
