<?xml version="1.0" encoding="UTF-8"?><svg width="14mm" height="14mm" version="1.1" viewBox="0 0 14 14" xmlns="http://www.w3.org/2000/svg"><g transform="translate(-1 -1)" fill="none" stroke="#49d095" stroke-linecap="round" stroke-linejoin="round" stroke-width="1.7"><path d="m13.197 5.0019a6 6 0 0 1 0.59763 1.4427"/><path d="m12.245 3.7594a6 6 0 0 1 0.95013 1.2383"/><path d="m8.0026 2a6 6 0 0 1 1.5477 0.20374"/><path d="m6.4498 2.2037a6 6 0 0 1 1.5476-0.20371"/><path d="m2.8052 4.9976a6 6 0 0 1 0.95031-1.2384"/><path d="m2.2051 6.4447a6 6 0 0 1 0.5975-1.4425"/><path d="m2.8023 10.997a6 6 0 0 1-0.59725-1.4421"/><path d="m3.7557 12.241a6 6 0 0 1-0.95067-1.2389"/><path d="m7.9974 14a6 6 0 0 1-1.5476-0.20371"/><path d="m9.5502 13.796a6 6 0 0 1-1.5477 0.20373"/><path d="m13.195 11.002a6 6 0 0 1-0.9504 1.2388"/><path d="m13.795 9.5553a6 6 0 0 1-0.59713 1.4418"/><path d="m12.831 6.7099a5 5 0 0 1 0.16931 1.286"/><path d="m10.503 3.6719a5 5 0 0 1 1.0292 0.78973"/><path d="m9.2978 3.1714a5 5 0 0 1 1.1984 0.49634"/><path d="m5.5037 3.6678a5 5 0 0 1 1.1987-0.49644"/><path d="m4.4676 4.4614a5 5 0 0 1 1.0291-0.78956"/><path d="m3 7.9958a5 5 0 0 1 0.16924-1.2857"/><path d="m3.1692 9.2899a5 5 0 0 1-0.16924-1.2857"/><path d="m5.4966 12.328a5 5 0 0 1-1.029-0.78952"/><path d="m6.7024 12.829a5 5 0 0 1-1.1985-0.49635"/><path d="m10.496 12.332a5 5 0 0 1-1.1987 0.49643"/><path d="m11.532 11.539a5 5 0 0 1-1.0293 0.78967"/><path d="m13 8.0042a5 5 0 0 1-0.16925 1.2857"/><path d="m9.5503 2.2037-0.25244 0.96764"/><path d="m6.4498 2.2037 0.25254 0.96761"/><path d="m12.245 3.7594-0.71202 0.70219"/><path d="m13.795 6.4447-0.96422 0.26519"/><path d="m12.831 9.2899 0.96415 0.26545"/><path d="m12.245 12.241-0.71228-0.70194"/><path d="m9.2976 12.829 0.25261 0.96759"/><path d="m6.4498 13.796 0.25252-0.96761"/><path d="m3.7557 12.241 0.71189-0.70232"/><path d="m2.2051 9.5553 0.96415-0.26547"/><path d="m2.2051 6.4447 0.96417 0.26539"/><path d="m3.7555 3.7592 0.71202 0.70219"/><circle cx="8" cy="8" r="3"/></g><g transform="translate(-1 -1)" fill="none" stroke="#000" stroke-linecap="round" stroke-linejoin="round" stroke-width=".75"><path d="m13.197 5.0019a6 6 0 0 1 0.59763 1.4427"/><path d="m12.245 3.7594a6 6 0 0 1 0.95013 1.2383"/><path d="m8.0026 2a6 6 0 0 1 1.5477 0.20374"/><path d="m6.4498 2.2037a6 6 0 0 1 1.5476-0.20371"/><path d="m2.8052 4.9976a6 6 0 0 1 0.95031-1.2384"/><path d="m2.2051 6.4447a6 6 0 0 1 0.5975-1.4425"/><path d="m2.8023 10.997a6 6 0 0 1-0.59725-1.4421"/><path d="m3.7557 12.241a6 6 0 0 1-0.95067-1.2389"/><path d="m7.9974 14a6 6 0 0 1-1.5476-0.20371"/><path d="m9.5502 13.796a6 6 0 0 1-1.5477 0.20373"/><path d="m13.195 11.002a6 6 0 0 1-0.9504 1.2388"/><path d="m13.795 9.5553a6 6 0 0 1-0.59713 1.4418"/><path d="m12.831 6.7099a5 5 0 0 1 0.16931 1.286"/><path d="m10.503 3.6719a5 5 0 0 1 1.0292 0.78973"/><path d="m9.2978 3.1714a5 5 0 0 1 1.1984 0.49634"/><path d="m5.5037 3.6678a5 5 0 0 1 1.1987-0.49644"/><path d="m4.4676 4.4614a5 5 0 0 1 1.0291-0.78956"/><path d="m3 7.9958a5 5 0 0 1 0.16924-1.2857"/><path d="m3.1692 9.2899a5 5 0 0 1-0.16924-1.2857"/><path d="m5.4966 12.328a5 5 0 0 1-1.029-0.78952"/><path d="m6.7024 12.829a5 5 0 0 1-1.1985-0.49635"/><path d="m10.496 12.332a5 5 0 0 1-1.1987 0.49643"/><path d="m11.532 11.539a5 5 0 0 1-1.0293 0.78967"/><path d="m13 8.0042a5 5 0 0 1-0.16925 1.2857"/><path d="m9.5503 2.2037-0.25244 0.96764"/><path d="m6.4498 2.2037 0.25254 0.96761"/><path d="m12.245 3.7594-0.71202 0.70219"/><path d="m13.795 6.4447-0.96422 0.26519"/><path d="m12.831 9.2899 0.96415 0.26545"/><path d="m12.245 12.241-0.71228-0.70194"/><path d="m9.2976 12.829 0.25261 0.96759"/><path d="m6.4498 13.796 0.25252-0.96761"/><path d="m3.7557 12.241 0.71189-0.70232"/><path d="m2.2051 9.5553 0.96415-0.26547"/><path d="m2.2051 6.4447 0.96417 0.26539"/><path d="m3.7555 3.7592 0.71202 0.70219"/><circle cx="8" cy="8" r="3"/></g></svg>
