<?xml version="1.0" encoding="UTF-8"?><svg width="14mm" height="14mm" version="1.1" viewBox="0 0 14 14" xmlns="http://www.w3.org/2000/svg"><g transform="translate(-1 -1)" stroke="#49d095" stroke-linecap="round" stroke-linejoin="round" stroke-width="1.7"><g fill="none"><circle cx="8" cy="8" r="6"/><path d="m5.0005 5.9645a3 2 0 0 1 2.564-1.9433 3 2 0 0 1 3.2933 1.3703 3 2 0 0 1-1.4922 2.3893"/><path d="m8.0362 8.9506a3 1.7978 0 0 1 1.3294-1.1698"/></g><circle cx="8" cy="11" r=".5"/></g><g transform="translate(-1 -1)" stroke="#000" stroke-linecap="round" stroke-linejoin="round" stroke-width=".75"><g fill="none"><circle cx="8" cy="8" r="6"/><path d="m5.0005 5.9645a3 2 0 0 1 2.564-1.9433 3 2 0 0 1 3.2933 1.3703 3 2 0 0 1-1.4922 2.3893"/><path d="m8.0362 8.9506a3 1.7978 0 0 1 1.3294-1.1698"/></g><circle cx="8" cy="11" r=".5"/></g></svg>
