<?xml version="1.0" encoding="UTF-8"?><svg width="14mm" height="14mm" version="1.1" viewBox="0 0 14 14" xmlns="http://www.w3.org/2000/svg"><g transform="translate(-1 -1)" fill="none" stroke="#49d095" stroke-linecap="round" stroke-linejoin="round" stroke-width="1.7"><path d="m2 7c0 4 1.3106 5.2168 2 1 0.65824-3.9102 1.8156-4.0889 2.4911 1e-7 1.4292 7.5914 2.2562 6.9759 3.5089-1e-7"/><path d="m10 8c1.0785-6.5387 2.7501-8.8593 4 2"/></g><g transform="translate(-1 -1)" fill="none" stroke="#000" stroke-linecap="round" stroke-linejoin="round" stroke-width=".75"><path d="m2 7c0 4 1.3106 5.2168 2 1 0.65824-3.9102 1.8156-4.0889 2.4911 1e-7 1.4292 7.5914 2.2562 6.9759 3.5089-1e-7"/><path d="m10 8c1.0785-6.5387 2.7501-8.8593 4 2"/></g></svg>
