<?xml version="1.0" encoding="UTF-8"?><svg width="14mm" height="14mm" version="1.1" viewBox="0 0 14 14" xmlns="http://www.w3.org/2000/svg"><g transform="translate(-1 -1)" fill="none" stroke="#49d095" stroke-linecap="round" stroke-linejoin="round" stroke-width="1.7"><path d="m3 8a5 5 0 0 1 5-5 5 5 0 0 1 4.4721 2.7638"/><path d="m2 6 1 2 3-2"/><path d="m13 8a5 5 0 0 1-5 5 5 5 0 0 1-4.4721-2.7638"/><path d="m14 10-1-2-3 2"/></g><g transform="translate(-1 -1)" fill="none" stroke="#000" stroke-linecap="round" stroke-linejoin="round" stroke-width=".75"><path d="m3 8a5 5 0 0 1 5-5 5 5 0 0 1 4.4721 2.7638"/><path d="m2 6 1 2 3-2"/><path d="m13 8a5 5 0 0 1-5 5 5 5 0 0 1-4.4721-2.7638"/><path d="m14 10-1-2-3 2"/></g></svg>
