<?xml version="1.0" encoding="UTF-8"?><svg width="14mm" height="14mm" version="1.1" viewBox="0 0 14 14" xmlns="http://www.w3.org/2000/svg"><g transform="translate(-1 -1)" fill="none" stroke="#49d095" stroke-linecap="round" stroke-linejoin="round" stroke-width="1.0"><path d="m7.8181 4.148a3.325 3.325 0 0 1 4.7023 2e-7 3.325 3.325 0 0 1 0 4.7023"/><path d="m6.4746 12.209a2.375 2.375 0 0 1-3.3588 0 2.375 2.375 0 0 1 0-3.3588"/><path d="m8.4898 6.1633a1.425 1.425 0 0 1 2.0153 0 1.425 1.425 0 0 1 0 2.0153"/><path d="m7.8181 4.148-4.7023 4.7023"/><path d="m8.4898 6.1633-2.3511 2.3511"/><path d="m10.505 8.1784-4.0307 4.0307"/><path d="m12.52 8.8502-2.3512 2.3512"/></g></svg>
